<?xml version="1.0" standalone="no"?><!DOCTYPE svg PUBLIC "-//W3C//DTD SVG 1.1//EN" "http://www.w3.org/Graphics/SVG/1.1/DTD/svg11.dtd"><svg t="1613896014554" class="icon" viewBox="0 0 1024 1024" version="1.1" xmlns="http://www.w3.org/2000/svg" p-id="1951" xmlns:xlink="http://www.w3.org/1999/xlink" width="1000" height="1000"><defs><style type="text/css"></style></defs><path d="M509.504 36.224a473.28 473.28 0 1 1 0 946.56 473.28 473.28 0 0 1 0-946.56z m0 891.392a418.112 418.112 0 1 0 0-836.288 418.112 418.112 0 0 0 0 836.288z" fill="#656565" p-id="1952"></path><path d="M267.968 470.4l215.168 235.328a33.92 33.92 0 0 0 50.88 0l215.168-235.328a39.872 39.872 0 0 0-25.408-67.2H293.568a39.808 39.808 0 0 0-25.6 67.2z" fill="#656565" p-id="1953"></path></svg>